<svg width="512" height="124" viewBox="0 0 512 124" fill="none" xmlns="http://www.w3.org/2000/svg">
<style>path { fill: #0B0D12; }</style>
<g clip-path="url(#clip0_45_141304)">
<path d="M72.7571 31.064C62.429 25.5416 51.8714 26.1169 42.0023 32.4446C32.5923 38.5423 27.543 47.2862 27.543 58.6762V100.324C38.4449 96.5278 44.4122 86.9786 44.4122 76.9692C44.4122 72.1371 44.4122 67.1899 44.4122 62.3578C44.4122 50.6226 50.2648 45.3303 57.8387 45.1002C67.5931 44.8701 72.2981 51.6581 72.4128 61.2073C72.4128 66.7297 72.4128 72.1371 72.4128 77.5444C72.4128 87.899 78.8392 97.103 88.5935 100.67C88.823 100.785 89.0526 100.9 89.3968 100.9C89.3968 86.2883 89.3968 71.6769 89.2821 57.0654C89.2821 45.1002 82.9704 36.4714 72.7571 31.064Z" fill="black"/>
<path d="M72.9864 108.033C64.0354 105.732 61.5107 103.085 59.1008 94.1115C58.8713 93.4212 57.8385 93.4212 57.609 94.1115C55.3139 103.085 52.6745 105.617 43.7234 108.033C43.0349 108.263 43.0349 109.298 43.7234 109.528C52.6745 111.829 55.1991 114.475 57.609 123.449C57.8385 124.14 58.8713 124.14 59.1008 123.449C61.396 114.475 64.0354 111.944 72.9864 109.528C73.6749 109.298 73.6749 108.263 72.9864 108.033Z" fill="black"/>
<path d="M3.6734 39.4623C-0.457837 50.2771 -0.228324 59.9413 0.115946 122.644C9.98502 116.201 19.0508 109.183 19.0508 96.2973C19.0508 55.9145 18.936 59.8263 20.0836 51.3125C22.264 35.2055 37.0676 18.6382 58.4123 18.8683C79.7571 18.7532 94.5607 35.3205 96.7411 51.3125C97.8886 59.9413 97.7739 56.1446 97.7739 96.2973C97.7739 109.068 106.725 116.086 116.709 122.644C117.053 59.8263 117.283 50.2771 113.151 39.4623C105.348 18.5231 90.659 5.63748 68.6257 1.03545C65.2977 0.460202 61.855 0 58.5271 0H58.4123C54.9696 0 51.6417 0.345151 48.3137 1.03545C26.2805 5.63748 11.5916 18.5231 3.6734 39.4623Z" fill="black"/>
<path d="M192.906 32.4447C191.873 30.3738 189.923 28.9932 187.742 28.9932H182.119C179.939 28.9932 177.988 30.3738 176.955 32.4447C167.43 52.6936 157.905 72.8274 148.495 93.0763L145.053 100.555H154.119C157.791 100.555 160.315 98.8288 161.807 95.2623C162.381 93.7666 163.07 92.2709 163.758 90.8903C164.332 89.6248 164.906 88.3592 165.365 87.2087C165.824 86.1733 166.512 85.7131 167.545 85.7131H202.316C203.349 85.7131 204.038 86.1733 204.497 87.2087L205.07 88.7044C206.218 91.3505 207.48 93.9967 208.628 96.6429C209.316 98.0235 210.808 100.209 213.562 100.44C215.054 100.555 216.661 100.555 218.612 100.555C219.874 100.555 221.136 100.555 222.399 100.555H224.579L218.382 87.4388C210.12 69.2608 201.398 50.6227 192.906 32.4447ZM169.611 75.8187L184.873 40.4982L200.136 75.8187H169.611Z" fill="black"/>
<path d="M510.668 64.4284C510.209 61.4371 509.406 58.4457 508.144 55.6845C505.849 50.6223 502.291 46.5955 497.471 43.8343C493.34 41.5333 488.75 40.6129 484.045 40.3828C482.897 40.3828 481.635 40.4979 480.487 40.4979C478.537 40.4979 476.815 40.9581 474.979 41.3032C469.356 42.6838 464.422 45.445 460.52 49.817C458.913 51.6578 457.536 53.6136 456.503 55.6845C454.323 59.9414 453.405 64.4284 453.061 69.1454C452.946 71.6765 453.061 74.0926 453.405 76.5087C453.864 80.0752 454.897 83.5268 456.618 86.7482C458.454 90.1997 460.864 93.0759 463.962 95.377C467.061 97.793 470.504 99.4037 474.291 100.439C476.471 101.014 478.766 101.475 480.947 101.59C482.897 101.705 484.848 101.82 486.914 101.705C489.438 101.475 491.848 101.245 494.373 100.669C498.389 99.6338 502.291 98.0231 505.619 95.607C506.767 94.8017 507.8 93.8813 508.718 92.7308C507.685 91.5803 506.652 90.5448 505.504 89.5094C504.472 88.4739 503.209 88.0137 501.717 88.0137C500.34 88.0137 498.963 88.4739 497.816 89.0492C494.144 90.89 490.242 91.6953 486.111 91.8104C483.471 91.9254 480.832 91.5803 478.307 90.7749C473.602 89.3943 469.815 86.7482 467.29 82.4913C466.143 80.4204 465.454 78.2344 465.34 75.8184H511.242C511.242 74.7829 511.472 73.9776 511.472 73.0572C511.472 71.5615 511.357 70.0658 511.357 68.5702C511.013 67.3046 510.783 65.924 510.668 64.4284ZM465.11 67.1896C465.11 65.3488 465.569 63.623 466.143 61.8973C466.946 59.3661 468.323 57.2952 470.159 55.4544C472.34 53.2685 474.979 52.0029 477.848 51.1976C479.914 50.7374 482.094 50.5073 484.274 50.6223C487.832 50.8524 491.16 51.8879 493.799 54.3039C495.521 55.7996 496.668 57.7554 497.471 59.9414C498.16 61.7822 498.619 63.7381 498.734 65.6939C498.734 66.1541 498.849 66.6143 498.849 67.0745H465.11V67.1896Z" fill="black"/>
<path d="M379.502 56.4896C377.895 50.507 374.338 45.905 368.6 43.1438C365.043 41.418 361.256 40.6127 357.354 40.4976C354.141 40.3826 350.927 40.3826 347.714 40.9578C344.731 41.418 341.747 42.1083 338.878 43.0287C336.583 43.8341 334.402 44.6394 332.222 45.905C332.566 47.2856 332.681 48.6662 333.14 49.9318C333.484 51.1973 334.288 52.2328 335.435 52.9231C336.927 53.8435 338.419 53.9585 340.026 53.4983C342.665 52.9231 345.19 51.8876 347.944 51.5425C349.436 51.3124 350.813 51.1973 352.19 51.0823C353.108 51.0823 354.026 51.0823 354.944 51.0823C357.124 51.0823 359.305 51.5425 361.37 52.2328C364.354 53.3833 366.534 55.5692 367.797 58.5605C368.6 60.5164 368.944 62.5873 369.174 64.5432C369.174 65.2335 369.174 65.9238 369.174 66.6141C368.141 66.2689 367.223 66.0388 366.305 65.8087C363.665 65.1184 360.911 64.4281 358.272 64.198C356.551 63.9679 354.714 63.9679 352.878 63.9679C350.927 63.9679 348.977 63.9679 347.026 64.198C344.157 64.6582 341.403 65.3485 338.763 66.6141C335.78 68.1097 333.14 69.9505 330.96 72.5967C329.009 75.1278 327.861 78.0041 327.517 81.1104C327.288 83.5265 327.402 85.9426 327.976 88.3586C329.124 92.7305 331.648 95.952 335.435 98.368C338.763 100.439 342.435 101.474 346.337 101.82C348.747 102.05 351.157 101.935 353.567 101.704C355.288 101.474 357.01 101.244 358.616 100.669C362.288 99.5185 365.387 97.5627 367.682 94.4563C368.141 93.881 368.6 93.3058 369.059 92.6155V93.881C369.059 94.9165 369.059 96.067 369.174 97.2175C369.289 98.4831 369.977 99.5185 371.01 100.209C371.928 100.784 372.846 101.129 373.879 101.129H380.076C380.19 101.129 380.42 101.129 380.535 101.129V66.6141C380.764 64.7733 380.764 63.0475 380.535 61.2067C380.305 59.7111 379.846 57.9853 379.502 56.4896ZM368.37 82.2609C367.682 84.2168 366.764 85.9426 365.272 87.3232C362.862 89.7392 359.993 91.0048 356.895 91.8101C355.518 92.1553 354.026 92.3854 352.649 92.2703C348.977 92.2703 345.534 91.58 342.55 89.279C340.37 87.6683 339.222 85.3673 339.108 82.6061C339.108 78.8094 340.829 76.1633 343.927 74.3225C345.878 73.172 347.944 72.4817 350.239 72.2516C351.731 72.1365 353.337 71.9064 354.944 71.9064C358.846 71.9064 362.633 72.4817 366.305 73.7472C367.223 74.0924 368.026 74.3225 369.059 74.6676C368.944 77.4288 369.289 79.8449 368.37 82.2609Z" fill="black"/>
<path d="M439.633 48.0908C437.912 46.0199 435.847 44.2941 433.437 43.1436C430.223 41.5329 426.895 40.7275 423.338 40.7275C420.469 40.7275 417.715 41.0727 414.961 41.878C410.141 43.3737 406.125 46.1349 402.682 49.8165C402.452 50.0466 402.223 50.3918 401.879 50.852V48.2058C401.879 47.7456 401.764 47.1704 401.764 46.7102C401.42 43.7188 398.665 41.763 396.141 41.878C394.305 41.878 392.583 41.878 390.747 41.878C390.518 41.878 390.288 41.878 390.059 41.878V101.014C392.239 101.014 394.419 101.129 396.485 101.014C398.321 100.899 399.813 99.9785 400.846 98.3678C401.534 97.2173 401.764 95.9518 401.764 94.6862V68.2246C401.764 66.7289 401.993 65.3483 402.338 63.9677C404.059 56.9497 409.567 52.5777 416.453 51.7724C418.403 51.5423 420.354 51.5423 422.305 51.8874C424.83 52.3476 427.125 53.3831 428.961 55.2239C430.682 56.8346 431.83 58.9055 432.404 61.2065C433.207 63.6226 433.322 66.1537 433.322 68.6848C433.322 77.1985 433.322 85.7123 433.322 94.226V95.6066C433.322 98.2528 435.502 100.784 438.486 101.129C440.666 101.244 442.847 101.129 445.027 101.129V65.1182C445.027 63.0473 444.798 61.0915 444.453 59.0206C443.765 54.9938 442.273 51.3122 439.633 48.0908Z" fill="black"/>
<path d="M316.615 83.6418C314.549 83.0665 312.713 83.4117 311.107 84.9074C310.418 85.5977 309.615 86.288 308.926 86.8632C305.713 89.5094 301.926 90.89 297.795 91.1201C296.762 91.1201 295.844 91.005 294.811 91.005C292.86 90.89 291.024 90.3147 289.188 89.5094C284.827 87.5535 281.844 84.3321 280.122 79.9602C278.86 76.8538 278.401 73.5174 278.631 70.0658C278.745 68.4551 278.975 66.7294 279.319 65.2337C280.696 60.4016 283.336 56.4899 287.696 53.9588C290.336 52.3481 293.205 51.5427 296.303 51.4277C297.451 51.4277 298.713 51.4277 299.746 51.6578C302.041 51.8879 304.221 52.5782 306.172 53.7287C307.779 54.6491 309.156 55.6845 310.418 57.0651C310.992 57.6404 311.68 58.2156 312.369 58.5608C313.402 59.136 314.549 59.4812 315.812 59.136C316.385 58.9059 317.074 58.7909 317.648 58.5608C319.025 57.8705 320.287 57.0651 321.55 56.3748C321.894 56.2598 322.123 56.0297 322.353 55.9146C322.353 55.6845 322.353 55.5695 322.238 55.4544C320.287 50.9675 317.189 47.5159 313.058 44.9848C309.959 43.029 306.516 41.7634 302.729 41.1882C299.86 40.728 296.992 40.4979 294.008 40.728C292.287 40.843 290.565 41.1882 288.959 41.5333C281.844 43.3741 276.221 47.1708 271.975 53.1534C268.188 58.5608 266.352 64.6585 266.352 71.2163C266.352 72.3668 266.466 73.5174 266.466 74.6679C266.581 76.7388 266.925 78.8097 267.614 80.7655C269.335 86.403 272.434 91.2351 277.024 95.0318C279.549 97.1027 282.303 98.7134 285.286 99.8639C287.926 100.899 290.565 101.475 293.319 101.82C294.926 101.935 296.533 102.05 298.139 101.935C300.434 101.82 302.729 101.59 305.025 101.014C310.189 99.7489 314.664 97.4478 318.222 93.4211C319.943 91.4652 321.32 89.2793 322.468 86.7482C320.746 85.8278 319.14 85.0224 317.533 84.102C317.533 83.9869 317.074 83.7568 316.615 83.6418Z" fill="black"/>
<path d="M243.629 49.9315C243.629 50.8519 243.629 52.0024 243.629 53.383L241.792 53.1529C242.251 52.0024 242.94 50.8519 243.629 49.9315C243.629 47.7456 243.629 46.9402 243.399 46.1349C242.825 43.6037 240.874 41.993 238.464 41.7629C236.284 41.6479 233.989 41.7629 231.809 41.7629V100.899C238.005 100.899 240.415 101.474 242.481 98.5979C246.153 93.5357 240.53 69.9503 247.186 60.5162C249.825 56.7195 254.186 54.9937 260.613 53.9583C263.252 53.4981 265.318 51.4272 265.432 48.4359C265.432 47.7456 265.547 42.2231 265.432 41.3027C256.826 41.3027 248.219 43.7188 243.629 49.9315Z" fill="black"/>
<path d="M243.629 53.3832C243.629 51.8875 243.629 50.852 243.629 49.9316C242.941 50.9671 242.252 52.0025 241.793 53.2681L243.629 53.3832Z" fill="black"/>
</g>
<defs>
<clipPath id="clip0_45_141304">
<rect width="511.126" height="123.909" fill="white"/>
</clipPath>
</defs>
</svg>
