<svg width="300" height="56" viewBox="0 0 300 56" fill="none" xmlns="http://www.w3.org/2000/svg">
  <g transform="translate(0 4) scale(0.444444)">
    <rect width="107.957" height="107.894" rx="24" fill="#0065F4"/>
    <path d="M61.0991 36.4822C55.9288 33.7162 50.6556 34.0264 45.7167 37.1802C41.0095 40.2047 38.5144 44.5992 38.5144 50.3121C38.5144 57.2658 38.5144 64.2455 38.5144 71.1992C43.942 69.2861 46.9516 64.504 46.9772 59.489C46.9772 57.059 46.9772 54.6032 47.003 52.1733C47.0286 46.3054 49.9096 43.617 53.7424 43.5134C58.6298 43.3842 60.9963 46.7965 61.0219 51.5788C61.0219 54.3189 61.0477 57.0332 61.0477 59.7733C61.0477 64.9692 64.2888 69.5963 69.1246 71.3542C69.2532 71.406 69.3818 71.4577 69.5105 71.4834C69.5105 64.1679 69.5105 56.8264 69.459 49.5108C69.3818 43.5134 66.218 39.1965 61.0991 36.4822Z" fill="#F8FAFC"/>
    <path d="M61.2258 75.0508C56.75 73.8876 55.4638 72.595 54.3063 68.0971C54.2033 67.7352 53.689 67.7352 53.586 68.0971C52.4285 72.595 51.1423 73.8876 46.6665 75.0508C46.3065 75.1541 46.3065 75.6712 46.6665 75.7745C51.1423 76.9379 52.4285 78.2303 53.586 82.7284C53.689 83.0902 54.2033 83.0902 54.3063 82.7284C55.4638 78.2303 56.75 76.9379 61.2258 75.7745C61.6116 75.6712 61.6116 75.1541 61.2258 75.0508Z" fill="#F8FAFC"/>
    <path d="M59.0662 21.4369C57.3942 21.1008 55.6965 20.9199 53.9987 20.894C53.9987 20.894 53.9731 20.894 53.9473 20.894C52.2496 20.894 50.552 21.075 48.8799 21.4369C37.8705 23.7117 30.5395 30.1743 26.5782 40.6696C24.5203 46.098 24.649 50.958 24.8033 82.366C29.7421 79.1348 34.2693 75.5932 34.2693 69.1823C34.2693 48.9674 34.2179 50.9063 34.7838 46.6151C35.8642 38.5498 43.2723 30.2518 53.9731 30.3294C64.6737 30.2518 72.0821 38.5498 73.1623 46.6151C73.754 50.958 73.6768 49.0192 73.6768 69.1823C73.6768 75.5932 78.1525 79.1089 83.1428 82.366C83.323 50.9063 83.4258 46.0723 81.368 40.6696C77.4066 30.1743 70.0756 23.7117 59.0662 21.4369Z" fill="#F8FAFC"/>
  </g>
  <text x="56" y="35" fill="#F8FAFC" font-family="Inter, ui-sans-serif, system-ui, -apple-system, sans-serif" font-size="18" font-weight="600" letter-spacing="-0.01em">Arcane Privacy Layer</text>
</svg>
